<svg width="25" height="25" viewBox="0 0 25 25" fill="none" xmlns="http://www.w3.org/2000/svg">
<mask id="path-1-inside-1_13_133" fill="white">
<path d="M10.65 0.465624C10.5609 0.559374 10.5211 0.624999 10.4906 0.730468C10.4461 0.882812 10.3875 1.07969 10.3266 1.28125C10.3055 1.35156 10.1531 1.8625 9.98672 2.41562L9.68672 3.42109L9.45937 3.49844C9.04687 3.63906 8.67656 3.79141 8.28047 3.98828L7.88672 4.18281L7.65234 4.05859C7.52344 3.99062 7.29141 3.86641 7.13672 3.78437C6.98203 3.7 6.79219 3.59687 6.71484 3.55469C6.17109 3.26172 5.68125 2.99453 5.53125 2.91016C5.43516 2.85859 5.29687 2.78359 5.22422 2.74609L5.09062 2.67812L4.8375 2.91484C4.69687 3.04609 4.09922 3.63672 3.50625 4.22969L2.43281 5.30781L2.55937 5.5375C2.62969 5.66641 2.73984 5.86328 2.80078 5.98047C2.86172 6.09531 2.94609 6.25 2.98359 6.32031C3.02344 6.39062 3.11719 6.56172 3.19219 6.7C3.26719 6.84062 3.39375 7.07266 3.47109 7.21562C3.55078 7.36094 3.66797 7.58125 3.73359 7.70312C3.79687 7.825 3.86484 7.94687 3.88125 7.97266C3.9 7.99844 3.91406 8.03359 3.91406 8.05469C3.91406 8.07344 3.84141 8.23281 3.75234 8.40625C3.54141 8.81875 3.33516 9.30859 3.17344 9.78203C3.13125 9.89922 3.12656 9.90391 3 9.94141C2.92969 9.96484 2.82891 9.99531 2.77734 10.0117C2.69766 10.0375 2.54062 10.0844 2.44922 10.1078C2.4375 10.1125 2.35312 10.1359 2.26172 10.1641C2.17266 10.1922 2.08125 10.218 2.0625 10.2227C2.04375 10.2273 1.95469 10.2531 1.86328 10.2812C1.77422 10.3094 1.68281 10.3352 1.66406 10.3398C1.64531 10.3445 1.50234 10.3867 1.34766 10.4336C0.932812 10.5578 0.717187 10.6234 0.480469 10.6914C0.288281 10.7477 0.257812 10.7641 0.135937 10.8859L0.00234375 11.0195L0 12.6883C0 14.3008 0 14.3594 0.0445312 14.3805C0.0679687 14.3945 0.175781 14.4297 0.283594 14.4625C0.391406 14.493 0.682031 14.5797 0.925781 14.6523C1.17187 14.725 1.3875 14.7883 1.40625 14.793C1.425 14.7977 1.51641 14.8258 1.60547 14.8516C1.86562 14.9312 1.96641 14.9617 2.17969 15.0227C2.44453 15.1 2.85234 15.2219 2.94375 15.2523C3.00703 15.2711 3.02344 15.2945 3.05859 15.4094C3.24375 16.0258 3.44531 16.5391 3.70312 17.0547L3.8625 17.3734L3.74062 17.6078C3.67266 17.7344 3.55078 17.9617 3.46875 18.1094C3.38906 18.257 3.28359 18.4516 3.23437 18.543C3.18516 18.632 3.08203 18.8219 3.00703 18.9648C2.77969 19.3797 2.56875 19.7711 2.45391 19.9867L2.34609 20.1859L3.54141 21.3812L4.73437 22.5742L4.87031 22.5062C4.94297 22.4664 5.08359 22.3914 5.17969 22.3398C5.37187 22.232 6.13828 21.8148 6.43359 21.6578C6.53672 21.6016 6.74766 21.4891 6.90234 21.4023C7.05703 21.318 7.25859 21.2102 7.35 21.1633L7.51641 21.0789L7.93594 21.2898C8.16562 21.407 8.49844 21.557 8.67187 21.625C8.84531 21.693 9.00937 21.7562 9.03516 21.768C9.07734 21.7844 9.44531 21.9016 9.57656 21.9414C9.60937 21.9484 9.63516 21.9859 9.65156 22.0422C9.69375 22.1898 9.80625 22.5766 9.91406 22.9258C9.93984 23.0148 9.96797 23.1062 9.97266 23.125C9.97969 23.1555 10.1367 23.6875 10.2984 24.2266C10.3289 24.3227 10.3922 24.5359 10.4414 24.7023L10.5305 25H12.225H13.9195L14.0484 24.8453C14.1211 24.7609 14.1797 24.6859 14.182 24.6766C14.1844 24.6461 14.2008 24.5898 14.25 24.4258C14.2781 24.3344 14.3039 24.2453 14.3086 24.2266C14.3133 24.2078 14.3391 24.1164 14.3672 24.0273C14.3953 23.9359 14.4211 23.8469 14.4258 23.8281C14.4305 23.8094 14.4562 23.725 14.482 23.6406C14.5078 23.5562 14.6297 23.1461 14.7539 22.7266C14.8781 22.307 14.9883 21.9484 15 21.9297C15.0094 21.9109 15.1125 21.8641 15.2273 21.8266C15.593 21.7094 16.0781 21.5055 16.5117 21.2898L16.9336 21.0789L17.0625 21.1469C17.1328 21.1844 17.3391 21.2945 17.5195 21.393C17.8125 21.5523 17.9953 21.6508 18.5625 21.9578C18.6469 22.0047 18.8414 22.1102 18.9961 22.1922C19.1508 22.2766 19.3687 22.3937 19.4789 22.4523C19.5891 22.5133 19.6945 22.5625 19.7156 22.5625C19.7578 22.5625 22.3359 19.9773 22.3359 19.9328C22.3359 19.9164 22.3078 19.8555 22.275 19.7969C22.2422 19.7383 22.1695 19.607 22.1133 19.5039C22.0594 19.4008 21.9469 19.1945 21.8672 19.0469C21.7852 18.8992 21.5437 18.4492 21.3281 18.0484C21.1102 17.65 20.9133 17.2844 20.8852 17.2398C20.8594 17.1953 20.8359 17.1437 20.8359 17.1227C20.8359 17.1016 20.8992 16.9609 20.9766 16.8109C21.1008 16.5672 21.232 16.2719 21.3422 15.9883C21.3633 15.9367 21.3867 15.8781 21.3961 15.8594C21.4055 15.8406 21.4547 15.6977 21.5039 15.543C21.5531 15.3883 21.6047 15.25 21.6187 15.2336C21.6328 15.2195 21.7406 15.1797 21.8555 15.1445C22.2023 15.0414 22.2703 15.0227 22.4414 14.9687C22.5328 14.943 22.6219 14.9148 22.6406 14.9102C22.6594 14.9055 22.7508 14.8797 22.8398 14.8516C22.9312 14.8234 23.0203 14.7977 23.0391 14.793C23.0578 14.7883 23.1492 14.7625 23.2383 14.7344C23.3297 14.7062 23.4187 14.6805 23.4375 14.6758C23.4562 14.6711 23.5992 14.6289 23.7539 14.582C23.9086 14.5352 24.1242 14.4719 24.232 14.4414C24.4055 14.3922 24.4453 14.3711 24.5555 14.2609L24.6797 14.1391V12.4469V10.7547L24.5344 10.7055C24.3961 10.6609 23.7727 10.4758 23.6953 10.457C23.6766 10.4523 23.5875 10.4242 23.4961 10.3984C23.25 10.3234 23.1422 10.2906 22.9102 10.2227C22.7953 10.1875 22.6148 10.1359 22.5117 10.1055C22.4086 10.075 22.2352 10.0234 22.125 9.99062C22.0148 9.96016 21.8578 9.91328 21.7734 9.88516L21.6211 9.83828L21.5414 9.59687C21.3844 9.10234 21.0844 8.40859 20.8547 7.99375L20.7492 7.80625L20.9367 7.46641C21.0375 7.28125 21.1687 7.03984 21.2273 6.92969C21.3609 6.68125 21.75 5.96172 22.0711 5.37109C22.1273 5.26797 22.1906 5.14844 22.2117 5.10625L22.2516 5.02891L21.082 3.85937C20.4375 3.21484 19.8937 2.6875 19.875 2.6875C19.8539 2.6875 19.8187 2.70156 19.793 2.71797C19.7672 2.73672 19.657 2.79766 19.5469 2.85625C19.3359 2.96875 18.9539 3.175 18.4992 3.42344C18.3469 3.50547 18.1594 3.60625 18.082 3.64844C17.8664 3.76328 17.6859 3.86172 17.3742 4.03281L17.0906 4.1875L16.718 4.00234C16.268 3.77734 15.9422 3.64375 15.4922 3.49609C15.3047 3.43516 15.1312 3.37656 15.1031 3.36719C15.068 3.35312 15.0422 3.29922 15.0023 3.16562C14.925 2.89141 14.8617 2.68047 14.625 1.89062C14.5055 1.49687 14.3859 1.09141 14.3555 0.98828C14.325 0.885155 14.2781 0.72578 14.25 0.636718C14.2219 0.545312 14.1961 0.453905 14.1914 0.430468C14.1867 0.409374 14.175 0.378905 14.168 0.367187C14.1586 0.35078 13.5586 0.343749 12.4594 0.343749H10.7648L10.65 0.465624ZM12.9492 8.29844C13.1437 8.33594 13.1578 8.33828 13.3383 8.38047C13.9195 8.51406 14.7023 8.92187 15.1875 9.34844C15.9937 10.0562 16.493 10.9211 16.6969 11.9687C16.7508 12.2477 16.7602 12.3812 16.7602 12.8172C16.7602 13.1992 16.7391 13.4336 16.6898 13.6633C16.6758 13.7172 16.6594 13.7992 16.6523 13.8437C16.6219 14.0242 16.4437 14.5047 16.3008 14.793C15.8836 15.6414 15.3469 16.2016 14.5781 16.5906C13.7461 17.0125 12.8203 17.1812 11.9531 17.0664C11.8055 17.0477 11.6578 17.0266 11.625 17.0195C11.5922 17.0125 11.5148 16.9961 11.4492 16.982C11.2359 16.9398 10.7227 16.7547 10.4578 16.6211C9.14531 15.9648 8.19375 14.6828 7.97812 13.2812C7.90781 12.8172 7.90781 12.107 7.98047 11.7578C7.9875 11.725 7.99922 11.6617 8.00625 11.6172C8.07891 11.2094 8.30625 10.6187 8.54062 10.2273C8.82187 9.75859 9.07969 9.46797 9.49219 9.15859C9.99844 8.77656 10.6992 8.45078 11.2383 8.34766C11.4094 8.31484 11.7141 8.26562 11.8008 8.25625C11.9953 8.23516 12.7664 8.26562 12.9492 8.29844Z"/>
</mask>
<path d="M10.65 0.465624C10.5609 0.559374 10.5211 0.624999 10.4906 0.730468C10.4461 0.882812 10.3875 1.07969 10.3266 1.28125C10.3055 1.35156 10.1531 1.8625 9.98672 2.41562L9.68672 3.42109L9.45937 3.49844C9.04687 3.63906 8.67656 3.79141 8.28047 3.98828L7.88672 4.18281L7.65234 4.05859C7.52344 3.99062 7.29141 3.86641 7.13672 3.78437C6.98203 3.7 6.79219 3.59687 6.71484 3.55469C6.17109 3.26172 5.68125 2.99453 5.53125 2.91016C5.43516 2.85859 5.29687 2.78359 5.22422 2.74609L5.09062 2.67812L4.8375 2.91484C4.69687 3.04609 4.09922 3.63672 3.50625 4.22969L2.43281 5.30781L2.55937 5.5375C2.62969 5.66641 2.73984 5.86328 2.80078 5.98047C2.86172 6.09531 2.94609 6.25 2.98359 6.32031C3.02344 6.39062 3.11719 6.56172 3.19219 6.7C3.26719 6.84062 3.39375 7.07266 3.47109 7.21562C3.55078 7.36094 3.66797 7.58125 3.73359 7.70312C3.79687 7.825 3.86484 7.94687 3.88125 7.97266C3.9 7.99844 3.91406 8.03359 3.91406 8.05469C3.91406 8.07344 3.84141 8.23281 3.75234 8.40625C3.54141 8.81875 3.33516 9.30859 3.17344 9.78203C3.13125 9.89922 3.12656 9.90391 3 9.94141C2.92969 9.96484 2.82891 9.99531 2.77734 10.0117C2.69766 10.0375 2.54062 10.0844 2.44922 10.1078C2.4375 10.1125 2.35312 10.1359 2.26172 10.1641C2.17266 10.1922 2.08125 10.218 2.0625 10.2227C2.04375 10.2273 1.95469 10.2531 1.86328 10.2812C1.77422 10.3094 1.68281 10.3352 1.66406 10.3398C1.64531 10.3445 1.50234 10.3867 1.34766 10.4336C0.932812 10.5578 0.717187 10.6234 0.480469 10.6914C0.288281 10.7477 0.257812 10.7641 0.135937 10.8859L0.00234375 11.0195L0 12.6883C0 14.3008 0 14.3594 0.0445312 14.3805C0.0679687 14.3945 0.175781 14.4297 0.283594 14.4625C0.391406 14.493 0.682031 14.5797 0.925781 14.6523C1.17187 14.725 1.3875 14.7883 1.40625 14.793C1.425 14.7977 1.51641 14.8258 1.60547 14.8516C1.86562 14.9312 1.96641 14.9617 2.17969 15.0227C2.44453 15.1 2.85234 15.2219 2.94375 15.2523C3.00703 15.2711 3.02344 15.2945 3.05859 15.4094C3.24375 16.0258 3.44531 16.5391 3.70312 17.0547L3.8625 17.3734L3.74062 17.6078C3.67266 17.7344 3.55078 17.9617 3.46875 18.1094C3.38906 18.257 3.28359 18.4516 3.23437 18.543C3.18516 18.632 3.08203 18.8219 3.00703 18.9648C2.77969 19.3797 2.56875 19.7711 2.45391 19.9867L2.34609 20.1859L3.54141 21.3812L4.73437 22.5742L4.87031 22.5062C4.94297 22.4664 5.08359 22.3914 5.17969 22.3398C5.37187 22.232 6.13828 21.8148 6.43359 21.6578C6.53672 21.6016 6.74766 21.4891 6.90234 21.4023C7.05703 21.318 7.25859 21.2102 7.35 21.1633L7.51641 21.0789L7.93594 21.2898C8.16562 21.407 8.49844 21.557 8.67187 21.625C8.84531 21.693 9.00937 21.7562 9.03516 21.768C9.07734 21.7844 9.44531 21.9016 9.57656 21.9414C9.60937 21.9484 9.63516 21.9859 9.65156 22.0422C9.69375 22.1898 9.80625 22.5766 9.91406 22.9258C9.93984 23.0148 9.96797 23.1062 9.97266 23.125C9.97969 23.1555 10.1367 23.6875 10.2984 24.2266C10.3289 24.3227 10.3922 24.5359 10.4414 24.7023L10.5305 25H12.225H13.9195L14.0484 24.8453C14.1211 24.7609 14.1797 24.6859 14.182 24.6766C14.1844 24.6461 14.2008 24.5898 14.25 24.4258C14.2781 24.3344 14.3039 24.2453 14.3086 24.2266C14.3133 24.2078 14.3391 24.1164 14.3672 24.0273C14.3953 23.9359 14.4211 23.8469 14.4258 23.8281C14.4305 23.8094 14.4562 23.725 14.482 23.6406C14.5078 23.5562 14.6297 23.1461 14.7539 22.7266C14.8781 22.307 14.9883 21.9484 15 21.9297C15.0094 21.9109 15.1125 21.8641 15.2273 21.8266C15.593 21.7094 16.0781 21.5055 16.5117 21.2898L16.9336 21.0789L17.0625 21.1469C17.1328 21.1844 17.3391 21.2945 17.5195 21.393C17.8125 21.5523 17.9953 21.6508 18.5625 21.9578C18.6469 22.0047 18.8414 22.1102 18.9961 22.1922C19.1508 22.2766 19.3687 22.3937 19.4789 22.4523C19.5891 22.5133 19.6945 22.5625 19.7156 22.5625C19.7578 22.5625 22.3359 19.9773 22.3359 19.9328C22.3359 19.9164 22.3078 19.8555 22.275 19.7969C22.2422 19.7383 22.1695 19.607 22.1133 19.5039C22.0594 19.4008 21.9469 19.1945 21.8672 19.0469C21.7852 18.8992 21.5437 18.4492 21.3281 18.0484C21.1102 17.65 20.9133 17.2844 20.8852 17.2398C20.8594 17.1953 20.8359 17.1437 20.8359 17.1227C20.8359 17.1016 20.8992 16.9609 20.9766 16.8109C21.1008 16.5672 21.232 16.2719 21.3422 15.9883C21.3633 15.9367 21.3867 15.8781 21.3961 15.8594C21.4055 15.8406 21.4547 15.6977 21.5039 15.543C21.5531 15.3883 21.6047 15.25 21.6187 15.2336C21.6328 15.2195 21.7406 15.1797 21.8555 15.1445C22.2023 15.0414 22.2703 15.0227 22.4414 14.9687C22.5328 14.943 22.6219 14.9148 22.6406 14.9102C22.6594 14.9055 22.7508 14.8797 22.8398 14.8516C22.9312 14.8234 23.0203 14.7977 23.0391 14.793C23.0578 14.7883 23.1492 14.7625 23.2383 14.7344C23.3297 14.7062 23.4187 14.6805 23.4375 14.6758C23.4562 14.6711 23.5992 14.6289 23.7539 14.582C23.9086 14.5352 24.1242 14.4719 24.232 14.4414C24.4055 14.3922 24.4453 14.3711 24.5555 14.2609L24.6797 14.1391V12.4469V10.7547L24.5344 10.7055C24.3961 10.6609 23.7727 10.4758 23.6953 10.457C23.6766 10.4523 23.5875 10.4242 23.4961 10.3984C23.25 10.3234 23.1422 10.2906 22.9102 10.2227C22.7953 10.1875 22.6148 10.1359 22.5117 10.1055C22.4086 10.075 22.2352 10.0234 22.125 9.99062C22.0148 9.96016 21.8578 9.91328 21.7734 9.88516L21.6211 9.83828L21.5414 9.59687C21.3844 9.10234 21.0844 8.40859 20.8547 7.99375L20.7492 7.80625L20.9367 7.46641C21.0375 7.28125 21.1687 7.03984 21.2273 6.92969C21.3609 6.68125 21.75 5.96172 22.0711 5.37109C22.1273 5.26797 22.1906 5.14844 22.2117 5.10625L22.2516 5.02891L21.082 3.85937C20.4375 3.21484 19.8937 2.6875 19.875 2.6875C19.8539 2.6875 19.8187 2.70156 19.793 2.71797C19.7672 2.73672 19.657 2.79766 19.5469 2.85625C19.3359 2.96875 18.9539 3.175 18.4992 3.42344C18.3469 3.50547 18.1594 3.60625 18.082 3.64844C17.8664 3.76328 17.6859 3.86172 17.3742 4.03281L17.0906 4.1875L16.718 4.00234C16.268 3.77734 15.9422 3.64375 15.4922 3.49609C15.3047 3.43516 15.1312 3.37656 15.1031 3.36719C15.068 3.35312 15.0422 3.29922 15.0023 3.16562C14.925 2.89141 14.8617 2.68047 14.625 1.89062C14.5055 1.49687 14.3859 1.09141 14.3555 0.98828C14.325 0.885155 14.2781 0.72578 14.25 0.636718C14.2219 0.545312 14.1961 0.453905 14.1914 0.430468C14.1867 0.409374 14.175 0.378905 14.168 0.367187C14.1586 0.35078 13.5586 0.343749 12.4594 0.343749H10.7648L10.65 0.465624ZM12.9492 8.29844C13.1437 8.33594 13.1578 8.33828 13.3383 8.38047C13.9195 8.51406 14.7023 8.92187 15.1875 9.34844C15.9937 10.0562 16.493 10.9211 16.6969 11.9687C16.7508 12.2477 16.7602 12.3812 16.7602 12.8172C16.7602 13.1992 16.7391 13.4336 16.6898 13.6633C16.6758 13.7172 16.6594 13.7992 16.6523 13.8437C16.6219 14.0242 16.4437 14.5047 16.3008 14.793C15.8836 15.6414 15.3469 16.2016 14.5781 16.5906C13.7461 17.0125 12.8203 17.1812 11.9531 17.0664C11.8055 17.0477 11.6578 17.0266 11.625 17.0195C11.5922 17.0125 11.5148 16.9961 11.4492 16.982C11.2359 16.9398 10.7227 16.7547 10.4578 16.6211C9.14531 15.9648 8.19375 14.6828 7.97812 13.2812C7.90781 12.8172 7.90781 12.107 7.98047 11.7578C7.9875 11.725 7.99922 11.6617 8.00625 11.6172C8.07891 11.2094 8.30625 10.6187 8.54062 10.2273C8.82187 9.75859 9.07969 9.46797 9.49219 9.15859C9.99844 8.77656 10.6992 8.45078 11.2383 8.34766C11.4094 8.31484 11.7141 8.26562 11.8008 8.25625C11.9953 8.23516 12.7664 8.26562 12.9492 8.29844Z" fill="white" stroke="black" stroke-width="2" mask="url(#path-1-inside-1_13_133)"/>
</svg>
